<mxfile host="Electron" modified="2024-01-04T17:23:05.830Z" agent="Mozilla/5.0 (Windows NT 10.0; Win64; x64) AppleWebKit/537.36 (KHTML, like Gecko) draw.io/22.1.16 Chrome/120.0.6099.109 Electron/28.1.0 Safari/537.36" etag="BSxfblgwJn7O-6NjpqW-" version="22.1.16" type="device">
  <diagram name="Page-1" id="2YBvvXClWsGukQMizWep">
    <mxGraphModel dx="2673" dy="877" grid="1" gridSize="10" guides="1" tooltips="1" connect="1" arrows="1" fold="1" page="1" pageScale="1" pageWidth="850" pageHeight="1100" math="0" shadow="0">
      <root>
        <mxCell id="0" />
        <mxCell id="1" parent="0" />
        <mxCell id="aM9ryv3xv72pqoxQDRHE-1" value="Main" style="shape=umlLifeline;perimeter=lifelinePerimeter;whiteSpace=wrap;html=1;container=0;dropTarget=0;collapsible=0;recursiveResize=0;outlineConnect=0;portConstraint=eastwest;newEdgeStyle={&quot;edgeStyle&quot;:&quot;elbowEdgeStyle&quot;,&quot;elbow&quot;:&quot;vertical&quot;,&quot;curved&quot;:0,&quot;rounded&quot;:0};" parent="1" vertex="1">
          <mxGeometry x="40" y="40" width="100" height="960" as="geometry" />
        </mxCell>
        <mxCell id="aM9ryv3xv72pqoxQDRHE-2" value="" style="html=1;points=[];perimeter=orthogonalPerimeter;outlineConnect=0;targetShapes=umlLifeline;portConstraint=eastwest;newEdgeStyle={&quot;edgeStyle&quot;:&quot;elbowEdgeStyle&quot;,&quot;elbow&quot;:&quot;vertical&quot;,&quot;curved&quot;:0,&quot;rounded&quot;:0};" parent="aM9ryv3xv72pqoxQDRHE-1" vertex="1">
          <mxGeometry x="45" y="60" width="10" height="880" as="geometry" />
        </mxCell>
        <mxCell id="5LNPvZAfc47RooRMTSRx-1" value="" style="html=1;points=[[0,0,0,0,5],[0,1,0,0,-5],[1,0,0,0,5],[1,1,0,0,-5]];perimeter=orthogonalPerimeter;outlineConnect=0;targetShapes=umlLifeline;portConstraint=eastwest;newEdgeStyle={&quot;curved&quot;:0,&quot;rounded&quot;:0};" vertex="1" parent="aM9ryv3xv72pqoxQDRHE-1">
          <mxGeometry x="45" y="80" width="10" height="40" as="geometry" />
        </mxCell>
        <mxCell id="5LNPvZAfc47RooRMTSRx-2" value="student_login()" style="html=1;align=left;spacingLeft=2;endArrow=block;rounded=0;edgeStyle=orthogonalEdgeStyle;curved=0;rounded=0;" edge="1" target="5LNPvZAfc47RooRMTSRx-1" parent="aM9ryv3xv72pqoxQDRHE-1">
          <mxGeometry relative="1" as="geometry">
            <mxPoint x="50" y="80" as="sourcePoint" />
            <Array as="points">
              <mxPoint x="80" y="110" />
            </Array>
          </mxGeometry>
        </mxCell>
        <mxCell id="5LNPvZAfc47RooRMTSRx-42" value="" style="html=1;points=[[0,0,0,0,5],[0,1,0,0,-5],[1,0,0,0,5],[1,1,0,0,-5]];perimeter=orthogonalPerimeter;outlineConnect=0;targetShapes=umlLifeline;portConstraint=eastwest;newEdgeStyle={&quot;curved&quot;:0,&quot;rounded&quot;:0};" vertex="1" parent="aM9ryv3xv72pqoxQDRHE-1">
          <mxGeometry x="45" y="870" width="10" height="40" as="geometry" />
        </mxCell>
        <mxCell id="5LNPvZAfc47RooRMTSRx-43" value="student_exit()" style="html=1;align=left;spacingLeft=2;endArrow=block;rounded=0;edgeStyle=orthogonalEdgeStyle;curved=0;rounded=0;" edge="1" target="5LNPvZAfc47RooRMTSRx-42" parent="aM9ryv3xv72pqoxQDRHE-1">
          <mxGeometry relative="1" as="geometry">
            <mxPoint x="50" y="850" as="sourcePoint" />
            <Array as="points">
              <mxPoint x="80" y="880" />
            </Array>
          </mxGeometry>
        </mxCell>
        <mxCell id="5LNPvZAfc47RooRMTSRx-3" value="Student" style="shape=umlLifeline;perimeter=lifelinePerimeter;whiteSpace=wrap;html=1;container=1;dropTarget=0;collapsible=0;recursiveResize=0;outlineConnect=0;portConstraint=eastwest;newEdgeStyle={&quot;curved&quot;:0,&quot;rounded&quot;:0};" vertex="1" parent="1">
          <mxGeometry x="240" y="40" width="100" height="960" as="geometry" />
        </mxCell>
        <mxCell id="5LNPvZAfc47RooRMTSRx-5" value="" style="html=1;points=[[0,0,0,0,5],[0,1,0,0,-5],[1,0,0,0,5],[1,1,0,0,-5]];perimeter=orthogonalPerimeter;outlineConnect=0;targetShapes=umlLifeline;portConstraint=eastwest;newEdgeStyle={&quot;curved&quot;:0,&quot;rounded&quot;:0};" vertex="1" parent="5LNPvZAfc47RooRMTSRx-3">
          <mxGeometry x="45" y="140" width="10" height="510" as="geometry" />
        </mxCell>
        <mxCell id="5LNPvZAfc47RooRMTSRx-20" value="" style="html=1;points=[[0,0,0,0,5],[0,1,0,0,-5],[1,0,0,0,5],[1,1,0,0,-5]];perimeter=orthogonalPerimeter;outlineConnect=0;targetShapes=umlLifeline;portConstraint=eastwest;newEdgeStyle={&quot;curved&quot;:0,&quot;rounded&quot;:0};" vertex="1" parent="5LNPvZAfc47RooRMTSRx-3">
          <mxGeometry x="45" y="210" width="10" height="40" as="geometry" />
        </mxCell>
        <mxCell id="5LNPvZAfc47RooRMTSRx-21" value="is_course_elligable(course)" style="html=1;align=left;spacingLeft=2;endArrow=block;rounded=0;edgeStyle=orthogonalEdgeStyle;curved=0;rounded=0;" edge="1" target="5LNPvZAfc47RooRMTSRx-20" parent="5LNPvZAfc47RooRMTSRx-3">
          <mxGeometry x="-0.3333" relative="1" as="geometry">
            <mxPoint x="55" y="210" as="sourcePoint" />
            <Array as="points">
              <mxPoint x="85" y="210" />
              <mxPoint x="85" y="240" />
            </Array>
            <mxPoint x="60" y="240" as="targetPoint" />
            <mxPoint as="offset" />
          </mxGeometry>
        </mxCell>
        <mxCell id="5LNPvZAfc47RooRMTSRx-4" value="get_elligable_courses(courses)" style="html=1;verticalAlign=bottom;endArrow=block;curved=0;rounded=0;" edge="1" parent="1">
          <mxGeometry x="0.0303" width="80" relative="1" as="geometry">
            <mxPoint x="95" y="190" as="sourcePoint" />
            <mxPoint x="285" y="190" as="targetPoint" />
            <mxPoint as="offset" />
          </mxGeometry>
        </mxCell>
        <mxCell id="5LNPvZAfc47RooRMTSRx-6" value="return elligable_courses" style="html=1;verticalAlign=bottom;endArrow=open;dashed=1;endSize=8;curved=0;rounded=0;" edge="1" parent="1">
          <mxGeometry relative="1" as="geometry">
            <mxPoint x="285" y="314.5" as="sourcePoint" />
            <mxPoint x="95" y="314.5" as="targetPoint" />
          </mxGeometry>
        </mxCell>
        <mxCell id="5LNPvZAfc47RooRMTSRx-7" value="get_registired_courses(courses)" style="html=1;verticalAlign=bottom;endArrow=block;curved=0;rounded=0;" edge="1" parent="1">
          <mxGeometry width="80" relative="1" as="geometry">
            <mxPoint x="95" y="340" as="sourcePoint" />
            <mxPoint x="285" y="340" as="targetPoint" />
            <mxPoint as="offset" />
          </mxGeometry>
        </mxCell>
        <mxCell id="5LNPvZAfc47RooRMTSRx-8" value="return registered_courses" style="html=1;verticalAlign=bottom;endArrow=open;dashed=1;endSize=8;curved=0;rounded=0;" edge="1" parent="1">
          <mxGeometry relative="1" as="geometry">
            <mxPoint x="285" y="450" as="sourcePoint" />
            <mxPoint x="95" y="450" as="targetPoint" />
          </mxGeometry>
        </mxCell>
        <mxCell id="5LNPvZAfc47RooRMTSRx-9" value="Draft" style="shape=umlLifeline;perimeter=lifelinePerimeter;whiteSpace=wrap;html=1;container=1;dropTarget=0;collapsible=0;recursiveResize=0;outlineConnect=0;portConstraint=eastwest;newEdgeStyle={&quot;curved&quot;:0,&quot;rounded&quot;:0};" vertex="1" parent="1">
          <mxGeometry x="610" y="40" width="100" height="960" as="geometry" />
        </mxCell>
        <mxCell id="5LNPvZAfc47RooRMTSRx-10" value="" style="html=1;points=[[0,0,0,0,5],[0,1,0,0,-5],[1,0,0,0,5],[1,1,0,0,-5]];perimeter=orthogonalPerimeter;outlineConnect=0;targetShapes=umlLifeline;portConstraint=eastwest;newEdgeStyle={&quot;curved&quot;:0,&quot;rounded&quot;:0};" vertex="1" parent="5LNPvZAfc47RooRMTSRx-9">
          <mxGeometry x="45" y="440" width="10" height="70" as="geometry" />
        </mxCell>
        <mxCell id="5LNPvZAfc47RooRMTSRx-32" value="" style="html=1;points=[[0,0,0,0,5],[0,1,0,0,-5],[1,0,0,0,5],[1,1,0,0,-5]];perimeter=orthogonalPerimeter;outlineConnect=0;targetShapes=umlLifeline;portConstraint=eastwest;newEdgeStyle={&quot;curved&quot;:0,&quot;rounded&quot;:0};" vertex="1" parent="5LNPvZAfc47RooRMTSRx-9">
          <mxGeometry x="45" y="630" width="10" height="80" as="geometry" />
        </mxCell>
        <mxCell id="5LNPvZAfc47RooRMTSRx-11" value="get_draft()" style="html=1;verticalAlign=bottom;endArrow=block;curved=0;rounded=0;" edge="1" parent="1">
          <mxGeometry width="80" relative="1" as="geometry">
            <mxPoint x="95" y="480" as="sourcePoint" />
            <mxPoint x="285" y="480" as="targetPoint" />
          </mxGeometry>
        </mxCell>
        <mxCell id="5LNPvZAfc47RooRMTSRx-12" value="return draft" style="html=1;verticalAlign=bottom;endArrow=open;dashed=1;endSize=8;curved=0;rounded=0;" edge="1" parent="1">
          <mxGeometry relative="1" as="geometry">
            <mxPoint x="285" y="570" as="sourcePoint" />
            <mxPoint x="95" y="570" as="targetPoint" />
          </mxGeometry>
        </mxCell>
        <mxCell id="5LNPvZAfc47RooRMTSRx-13" value="get_advisor()" style="html=1;verticalAlign=bottom;endArrow=block;curved=0;rounded=0;" edge="1" parent="1">
          <mxGeometry width="80" relative="1" as="geometry">
            <mxPoint x="95" y="600" as="sourcePoint" />
            <mxPoint x="285" y="600" as="targetPoint" />
          </mxGeometry>
        </mxCell>
        <mxCell id="5LNPvZAfc47RooRMTSRx-14" value="return advisor" style="html=1;verticalAlign=bottom;endArrow=open;dashed=1;endSize=8;curved=0;rounded=0;" edge="1" parent="1">
          <mxGeometry relative="1" as="geometry">
            <mxPoint x="285" y="650" as="sourcePoint" />
            <mxPoint x="95" y="650" as="targetPoint" />
          </mxGeometry>
        </mxCell>
        <mxCell id="5LNPvZAfc47RooRMTSRx-15" value="Loop" style="shape=umlFrame;whiteSpace=wrap;html=1;pointerEvents=0;" vertex="1" parent="1">
          <mxGeometry x="-40" y="110" width="210" height="50" as="geometry" />
        </mxCell>
        <mxCell id="aM9ryv3xv72pqoxQDRHE-3" value="dispatch" style="html=1;verticalAlign=bottom;startArrow=oval;endArrow=block;startSize=8;edgeStyle=elbowEdgeStyle;elbow=vertical;curved=0;rounded=0;" parent="1" edge="1">
          <mxGeometry relative="1" as="geometry">
            <mxPoint x="25" y="100" as="sourcePoint" />
            <mxPoint x="85" y="100" as="targetPoint" />
          </mxGeometry>
        </mxCell>
        <mxCell id="5LNPvZAfc47RooRMTSRx-16" value="Course" style="shape=umlLifeline;perimeter=lifelinePerimeter;whiteSpace=wrap;html=1;container=1;dropTarget=0;collapsible=0;recursiveResize=0;outlineConnect=0;portConstraint=eastwest;newEdgeStyle={&quot;curved&quot;:0,&quot;rounded&quot;:0};" vertex="1" parent="1">
          <mxGeometry x="480" y="40" width="100" height="960" as="geometry" />
        </mxCell>
        <mxCell id="5LNPvZAfc47RooRMTSRx-18" value="" style="html=1;points=[[0,0,0,0,5],[0,1,0,0,-5],[1,0,0,0,5],[1,1,0,0,-5]];perimeter=orthogonalPerimeter;outlineConnect=0;targetShapes=umlLifeline;portConstraint=eastwest;newEdgeStyle={&quot;curved&quot;:0,&quot;rounded&quot;:0};" vertex="1" parent="5LNPvZAfc47RooRMTSRx-16">
          <mxGeometry x="45" y="140" width="10" height="80" as="geometry" />
        </mxCell>
        <mxCell id="5LNPvZAfc47RooRMTSRx-23" value="" style="html=1;points=[[0,0,0,0,5],[0,1,0,0,-5],[1,0,0,0,5],[1,1,0,0,-5]];perimeter=orthogonalPerimeter;outlineConnect=0;targetShapes=umlLifeline;portConstraint=eastwest;newEdgeStyle={&quot;curved&quot;:0,&quot;rounded&quot;:0};" vertex="1" parent="5LNPvZAfc47RooRMTSRx-16">
          <mxGeometry x="45" y="320" width="10" height="60" as="geometry" />
        </mxCell>
        <mxCell id="5LNPvZAfc47RooRMTSRx-17" value="get_all_courses()" style="html=1;verticalAlign=bottom;endArrow=block;curved=0;rounded=0;" edge="1" parent="1" target="5LNPvZAfc47RooRMTSRx-18">
          <mxGeometry width="80" relative="1" as="geometry">
            <mxPoint x="295" y="200" as="sourcePoint" />
            <mxPoint x="375" y="200" as="targetPoint" />
          </mxGeometry>
        </mxCell>
        <mxCell id="5LNPvZAfc47RooRMTSRx-19" value="return courses" style="html=1;verticalAlign=bottom;endArrow=open;dashed=1;endSize=8;curved=0;rounded=0;" edge="1" parent="1" source="5LNPvZAfc47RooRMTSRx-18" target="5LNPvZAfc47RooRMTSRx-5">
          <mxGeometry relative="1" as="geometry">
            <mxPoint x="390" y="220" as="sourcePoint" />
            <mxPoint x="310" y="220" as="targetPoint" />
          </mxGeometry>
        </mxCell>
        <mxCell id="5LNPvZAfc47RooRMTSRx-22" value="Loop" style="shape=umlFrame;whiteSpace=wrap;html=1;pointerEvents=0;" vertex="1" parent="1">
          <mxGeometry x="230" y="240" width="230" height="50" as="geometry" />
        </mxCell>
        <mxCell id="5LNPvZAfc47RooRMTSRx-24" value="has_student(user_id)" style="html=1;verticalAlign=bottom;endArrow=block;curved=0;rounded=0;" edge="1" parent="1">
          <mxGeometry width="80" relative="1" as="geometry">
            <mxPoint x="295" y="370.0000000000001" as="sourcePoint" />
            <mxPoint x="525" y="370.0000000000001" as="targetPoint" />
          </mxGeometry>
        </mxCell>
        <mxCell id="5LNPvZAfc47RooRMTSRx-25" value="return boolean" style="html=1;verticalAlign=bottom;endArrow=open;dashed=1;endSize=8;curved=0;rounded=0;" edge="1" parent="1">
          <mxGeometry relative="1" as="geometry">
            <mxPoint x="525" y="400.0000000000001" as="sourcePoint" />
            <mxPoint x="295" y="400.0000000000001" as="targetPoint" />
          </mxGeometry>
        </mxCell>
        <mxCell id="5LNPvZAfc47RooRMTSRx-26" value="Loop" style="shape=umlFrame;whiteSpace=wrap;html=1;pointerEvents=0;" vertex="1" parent="1">
          <mxGeometry x="210" y="350" width="340" height="80" as="geometry" />
        </mxCell>
        <mxCell id="5LNPvZAfc47RooRMTSRx-28" value="get_courses()" style="html=1;verticalAlign=bottom;endArrow=block;curved=0;rounded=0;" edge="1" parent="1">
          <mxGeometry width="80" relative="1" as="geometry">
            <mxPoint x="295" y="489.9999999999999" as="sourcePoint" />
            <mxPoint x="655" y="489.9999999999999" as="targetPoint" />
          </mxGeometry>
        </mxCell>
        <mxCell id="5LNPvZAfc47RooRMTSRx-29" value="return courses" style="html=1;verticalAlign=bottom;endArrow=open;dashed=1;endSize=8;curved=0;rounded=0;" edge="1" parent="1">
          <mxGeometry relative="1" as="geometry">
            <mxPoint x="655" y="530" as="sourcePoint" />
            <mxPoint x="295" y="530" as="targetPoint" />
          </mxGeometry>
        </mxCell>
        <mxCell id="5LNPvZAfc47RooRMTSRx-30" value="Advisor" style="shape=umlLifeline;perimeter=lifelinePerimeter;whiteSpace=wrap;html=1;container=1;dropTarget=0;collapsible=0;recursiveResize=0;outlineConnect=0;portConstraint=eastwest;newEdgeStyle={&quot;curved&quot;:0,&quot;rounded&quot;:0};" vertex="1" parent="1">
          <mxGeometry x="790" y="40" width="100" height="960" as="geometry" />
        </mxCell>
        <mxCell id="5LNPvZAfc47RooRMTSRx-36" value="" style="html=1;points=[[0,0,0,0,5],[0,1,0,0,-5],[1,0,0,0,5],[1,1,0,0,-5]];perimeter=orthogonalPerimeter;outlineConnect=0;targetShapes=umlLifeline;portConstraint=eastwest;newEdgeStyle={&quot;curved&quot;:0,&quot;rounded&quot;:0};" vertex="1" parent="5LNPvZAfc47RooRMTSRx-30">
          <mxGeometry x="45" y="760" width="10" height="80" as="geometry" />
        </mxCell>
        <mxCell id="5LNPvZAfc47RooRMTSRx-31" value="add_to_draft(course)" style="html=1;verticalAlign=bottom;endArrow=block;curved=0;rounded=0;" edge="1" parent="1">
          <mxGeometry width="80" relative="1" as="geometry">
            <mxPoint x="95" y="680" as="sourcePoint" />
            <mxPoint x="655" y="680" as="targetPoint" />
          </mxGeometry>
        </mxCell>
        <mxCell id="5LNPvZAfc47RooRMTSRx-33" value="return boolean" style="html=1;verticalAlign=bottom;endArrow=open;dashed=1;endSize=8;curved=0;rounded=0;" edge="1" parent="1" source="5LNPvZAfc47RooRMTSRx-32" target="aM9ryv3xv72pqoxQDRHE-2">
          <mxGeometry relative="1" as="geometry">
            <mxPoint x="465" y="710" as="sourcePoint" />
            <mxPoint x="385" y="710" as="targetPoint" />
          </mxGeometry>
        </mxCell>
        <mxCell id="5LNPvZAfc47RooRMTSRx-34" value="Loop" style="shape=umlFrame;whiteSpace=wrap;html=1;pointerEvents=0;" vertex="1" parent="1">
          <mxGeometry x="-10" y="660" width="780" height="120" as="geometry" />
        </mxCell>
        <mxCell id="5LNPvZAfc47RooRMTSRx-35" value="add_draft(draft)" style="html=1;verticalAlign=bottom;endArrow=block;curved=0;rounded=0;" edge="1" parent="1">
          <mxGeometry width="80" relative="1" as="geometry">
            <mxPoint x="95" y="810" as="sourcePoint" />
            <mxPoint x="835" y="810" as="targetPoint" />
          </mxGeometry>
        </mxCell>
        <mxCell id="5LNPvZAfc47RooRMTSRx-37" value="return boolean&lt;br&gt;" style="html=1;verticalAlign=bottom;endArrow=open;dashed=1;endSize=8;curved=0;rounded=0;" edge="1" parent="1">
          <mxGeometry relative="1" as="geometry">
            <mxPoint x="835" y="860" as="sourcePoint" />
            <mxPoint x="95" y="860" as="targetPoint" />
          </mxGeometry>
        </mxCell>
      </root>
    </mxGraphModel>
  </diagram>
</mxfile>
